<svg width="60" height="59" viewBox="0 0 60 59" fill="none" xmlns="http://www.w3.org/2000/svg">
<path d="M55.9753 14.9413C53.2926 10.3448 49.6538 6.70584 45.0578 4.02345C40.4611 1.34092 35.4428 0 29.9995 0C24.5569 0 19.537 1.34133 14.9413 4.02345C10.3448 6.7057 6.70611 10.3448 4.02345 14.9413C1.3412 19.5376 0 24.5568 0 29.9987C0 36.5357 1.9072 42.414 5.72255 47.635C9.5375 52.8564 14.4658 56.4694 20.5072 58.4744C21.2104 58.6049 21.731 58.5131 22.0695 58.2013C22.4081 57.8891 22.5772 57.4981 22.5772 57.0299C22.5772 56.9518 22.5705 56.249 22.5575 54.9206C22.5441 53.5923 22.5378 52.4335 22.5378 51.4447L21.6393 51.6001C21.0665 51.7051 20.3438 51.7495 19.4713 51.7369C18.5993 51.7248 17.694 51.6334 16.7567 51.4634C15.8189 51.295 14.9467 50.9044 14.1394 50.2924C13.3325 49.6805 12.7596 48.8794 12.421 47.8905L12.0304 46.9917C11.77 46.3932 11.3601 45.7284 10.8002 44.9998C10.2402 44.2704 9.6739 43.776 9.10106 43.5156L8.82757 43.3198C8.64533 43.1897 8.47622 43.0328 8.31985 42.8507C8.1636 42.6686 8.04663 42.4863 7.9685 42.3038C7.89025 42.1212 7.9551 41.9714 8.16374 41.8538C8.37238 41.7363 8.74944 41.6793 9.29657 41.6793L10.0775 41.796C10.5984 41.9004 11.2426 42.2122 12.0111 42.7333C12.7792 43.254 13.4106 43.931 13.9054 44.7639C14.5047 45.8319 15.2267 46.6456 16.0734 47.2056C16.9195 47.7656 17.7725 48.0451 18.6317 48.0451C19.4909 48.0451 20.233 47.98 20.8582 47.8504C21.4828 47.7202 22.0688 47.5244 22.6159 47.2642C22.8503 45.5187 23.4884 44.1778 24.5297 43.2405C23.0455 43.0845 21.7111 42.8496 20.5259 42.5372C19.3414 42.2245 18.1173 41.7169 16.8545 41.0131C15.591 40.3103 14.5429 39.4376 13.7098 38.3964C12.8766 37.3547 12.1928 35.9871 11.6594 34.2948C11.1256 32.6019 10.8587 30.649 10.8587 28.4356C10.8587 25.2841 11.8876 22.6022 13.9448 20.3886C12.9811 18.0192 13.0721 15.3631 14.2181 12.4205C14.9733 12.1858 16.0933 12.3619 17.5774 12.9476C19.0619 13.5336 20.1487 14.0356 20.8391 14.4517C21.5294 14.8678 22.0826 15.2204 22.4993 15.5063C24.9216 14.8295 27.4214 14.491 29.9992 14.491C32.5771 14.491 35.0774 14.8295 37.4998 15.5063L38.9841 14.5693C39.9992 13.944 41.1978 13.371 42.5772 12.8502C43.9574 12.3296 45.0128 12.1862 45.7423 12.4209C46.9137 15.3636 47.018 18.0196 46.0541 20.389C48.1112 22.6026 49.1405 25.2852 49.1405 28.436C49.1405 30.6494 48.8726 32.6084 48.3397 34.3144C47.8061 36.0206 47.1164 37.3868 46.2704 38.416C45.4233 39.4449 44.3685 40.3108 43.1057 41.0135C41.8426 41.7168 40.6181 42.2243 39.4336 42.5371C38.2485 42.8499 36.9141 43.0849 35.43 43.2411C36.7836 44.4126 37.4606 46.2616 37.4606 48.7875V57.0288C37.4606 57.497 37.6234 57.8879 37.9493 58.2002C38.2748 58.512 38.7888 58.6038 39.492 58.4731C45.5342 56.4684 50.4625 52.8553 54.2773 47.6339C58.0917 42.4129 59.9996 36.5346 59.9996 29.9976C59.9982 24.5563 58.6563 19.5376 55.9753 14.9413Z" fill="white"/>
</svg>
