<svg width="60" height="59" viewBox="0 0 60 59" fill="none" xmlns="http://www.w3.org/2000/svg">
<path d="M35.7422 29.531C35.7422 32.6247 33.1714 35.1325 30 35.1325C26.8286 35.1325 24.2578 32.6247 24.2578 29.531C24.2578 26.4373 26.8286 23.9295 30 23.9295C33.1714 23.9295 35.7422 26.4373 35.7422 29.531Z" fill="white"/>
<path d="M43.4288 19.6203C43.1528 18.8906 42.7124 18.2302 42.1402 17.6881C41.5845 17.1299 40.9079 16.7003 40.1595 16.431C39.5525 16.2011 38.6406 15.9273 36.9611 15.8528C35.1442 15.7719 34.5995 15.7545 29.9999 15.7545C25.3998 15.7545 24.8551 15.7715 23.0387 15.8523C21.3591 15.9273 20.4468 16.2011 19.8403 16.431C19.0918 16.7003 18.4148 17.1299 17.8595 17.6881C17.2873 18.2302 16.847 18.8902 16.5705 19.6203C16.3347 20.2124 16.0541 21.1024 15.9777 22.7408C15.8948 24.5127 15.877 25.0441 15.877 29.5314C15.877 34.0183 15.8948 34.5497 15.9777 36.3221C16.0541 37.9605 16.3347 38.85 16.5705 39.4421C16.847 40.1722 17.2869 40.8322 17.8591 41.3743C18.4148 41.9325 19.0914 42.3621 19.8398 42.6314C20.4468 42.8618 21.3591 43.1355 23.0387 43.2101C24.8551 43.2909 25.3994 43.3079 29.9994 43.3079C34.5999 43.3079 35.1447 43.2909 36.9606 43.2101C38.6402 43.1355 39.5525 42.8618 40.1595 42.6314C41.6619 42.066 42.8493 40.9077 43.4288 39.4421C43.6646 38.85 43.9452 37.9605 44.0221 36.3221C44.1049 34.5497 44.1223 34.0183 44.1223 29.5314C44.1223 25.0441 44.1049 24.5127 44.0221 22.7408C43.9456 21.1024 43.665 20.2124 43.4288 19.6203ZM29.9999 38.1601C25.1142 38.1601 21.1536 34.297 21.1536 29.531C21.1536 24.765 25.1142 20.9019 29.9999 20.9019C34.8851 20.9019 38.8457 24.765 38.8457 29.531C38.8457 34.297 34.8851 38.1601 29.9999 38.1601ZM39.1954 22.5773C38.0538 22.5773 37.1282 21.6744 37.1282 20.5607C37.1282 19.447 38.0538 18.5441 39.1954 18.5441C40.3371 18.5441 41.2627 19.447 41.2627 20.5607C41.2622 21.6744 40.3371 22.5773 39.1954 22.5773Z" fill="white"/>
<path d="M30 0.265991C13.434 0.265991 0 13.3708 0 29.531C0 45.6911 13.434 58.796 30 58.796C46.566 58.796 60 45.6911 60 29.531C60 13.3708 46.566 0.265991 30 0.265991ZM47.1227 36.4592C47.0393 38.2481 46.7477 39.4694 46.322 40.5384C45.4271 42.7957 43.5979 44.5801 41.2839 45.4531C40.1884 45.8684 38.936 46.1524 37.1027 46.2341C35.2657 46.3159 34.6788 46.3355 30.0005 46.3355C25.3217 46.3355 24.7353 46.3159 22.8978 46.2341C21.0645 46.1524 19.812 45.8684 18.7166 45.4531C17.5667 45.0311 16.5257 44.3698 15.6651 43.5147C14.789 42.6756 14.111 41.6597 13.6784 40.5384C13.2527 39.4698 12.9611 38.2481 12.8778 36.4596C12.7931 34.6672 12.7734 34.0947 12.7734 29.531C12.7734 24.9673 12.7931 24.3948 12.8773 22.6028C12.9607 20.8139 13.2518 19.5926 13.6775 18.5236C14.1101 17.4023 14.7885 16.3864 15.6651 15.5473C16.5253 14.6922 17.5667 14.0308 18.7161 13.6089C19.812 13.1936 21.064 12.9096 22.8978 12.8278C24.7348 12.7461 25.3217 12.7265 30 12.7265C34.6783 12.7265 35.2652 12.7461 37.1022 12.8283C38.936 12.9096 40.188 13.1936 41.2839 13.6084C42.4333 14.0304 43.4747 14.6922 44.3353 15.5473C45.2115 16.3868 45.8899 17.4023 46.322 18.5236C46.7482 19.5926 47.0393 20.8139 47.1231 22.6028C47.2069 24.3948 47.2266 24.9673 47.2266 29.531C47.2266 34.0947 47.2069 34.6672 47.1227 36.4592Z" fill="white"/>
<path d="M35.7422 29.531C35.7422 32.6247 33.1714 35.1325 30 35.1325C26.8286 35.1325 24.2578 32.6247 24.2578 29.531C24.2578 26.4373 26.8286 23.9295 30 23.9295C33.1714 23.9295 35.7422 26.4373 35.7422 29.531Z" fill="white"/>
<path d="M43.4288 19.6203C43.1528 18.8906 42.7124 18.2302 42.1402 17.6881C41.5845 17.1299 40.9079 16.7003 40.1595 16.431C39.5525 16.2011 38.6406 15.9273 36.9611 15.8528C35.1442 15.7719 34.5995 15.7545 29.9999 15.7545C25.3998 15.7545 24.8551 15.7715 23.0387 15.8523C21.3591 15.9273 20.4468 16.2011 19.8403 16.431C19.0918 16.7003 18.4148 17.1299 17.8595 17.6881C17.2873 18.2302 16.847 18.8902 16.5705 19.6203C16.3347 20.2124 16.0541 21.1024 15.9777 22.7408C15.8948 24.5127 15.877 25.0441 15.877 29.5314C15.877 34.0183 15.8948 34.5497 15.9777 36.3221C16.0541 37.9605 16.3347 38.85 16.5705 39.4421C16.847 40.1722 17.2869 40.8322 17.8591 41.3743C18.4148 41.9325 19.0914 42.3621 19.8398 42.6314C20.4468 42.8618 21.3591 43.1355 23.0387 43.2101C24.8551 43.2909 25.3994 43.3079 29.9994 43.3079C34.5999 43.3079 35.1447 43.2909 36.9606 43.2101C38.6402 43.1355 39.5525 42.8618 40.1595 42.6314C41.6619 42.066 42.8493 40.9077 43.4288 39.4421C43.6646 38.85 43.9452 37.9605 44.0221 36.3221C44.1049 34.5497 44.1223 34.0183 44.1223 29.5314C44.1223 25.0441 44.1049 24.5127 44.0221 22.7408C43.9456 21.1024 43.665 20.2124 43.4288 19.6203ZM29.9999 38.1601C25.1142 38.1601 21.1536 34.297 21.1536 29.531C21.1536 24.765 25.1142 20.9019 29.9999 20.9019C34.8851 20.9019 38.8457 24.765 38.8457 29.531C38.8457 34.297 34.8851 38.1601 29.9999 38.1601ZM39.1954 22.5773C38.0538 22.5773 37.1282 21.6744 37.1282 20.5607C37.1282 19.447 38.0538 18.5441 39.1954 18.5441C40.3371 18.5441 41.2627 19.447 41.2627 20.5607C41.2622 21.6744 40.3371 22.5773 39.1954 22.5773Z" fill="white"/>
<path d="M30 0.265991C13.434 0.265991 0 13.3708 0 29.531C0 45.6911 13.434 58.796 30 58.796C46.566 58.796 60 45.6911 60 29.531C60 13.3708 46.566 0.265991 30 0.265991ZM47.1227 36.4592C47.0393 38.2481 46.7477 39.4694 46.322 40.5384C45.4271 42.7957 43.5979 44.5801 41.2839 45.4531C40.1884 45.8684 38.936 46.1524 37.1027 46.2341C35.2657 46.3159 34.6788 46.3355 30.0005 46.3355C25.3217 46.3355 24.7353 46.3159 22.8978 46.2341C21.0645 46.1524 19.812 45.8684 18.7166 45.4531C17.5667 45.0311 16.5257 44.3698 15.6651 43.5147C14.789 42.6756 14.111 41.6597 13.6784 40.5384C13.2527 39.4698 12.9611 38.2481 12.8778 36.4596C12.7931 34.6672 12.7734 34.0947 12.7734 29.531C12.7734 24.9673 12.7931 24.3948 12.8773 22.6028C12.9607 20.8139 13.2518 19.5926 13.6775 18.5236C14.1101 17.4023 14.7885 16.3864 15.6651 15.5473C16.5253 14.6922 17.5667 14.0308 18.7161 13.6089C19.812 13.1936 21.064 12.9096 22.8978 12.8278C24.7348 12.7461 25.3217 12.7265 30 12.7265C34.6783 12.7265 35.2652 12.7461 37.1022 12.8283C38.936 12.9096 40.188 13.1936 41.2839 13.6084C42.4333 14.0304 43.4747 14.6922 44.3353 15.5473C45.2115 16.3868 45.8899 17.4023 46.322 18.5236C46.7482 19.5926 47.0393 20.8139 47.1231 22.6028C47.2069 24.3948 47.2266 24.9673 47.2266 29.531C47.2266 34.0947 47.2069 34.6672 47.1227 36.4592Z" fill="white"/>
</svg>
