<svg width="60" height="59" viewBox="0 0 60 59" fill="none" xmlns="http://www.w3.org/2000/svg">
<path d="M30 0.265991C13.434 0.265991 0 13.3708 0 29.531C0 45.6911 13.434 58.796 30 58.796C46.566 58.796 60 45.6911 60 29.531C60 13.3708 46.566 0.265991 30 0.265991ZM43.6977 23.0837C43.7109 23.3717 43.7173 23.6611 43.7173 23.9518C43.7173 32.8279 36.7914 43.0632 24.1255 43.0636H24.126H24.1255C20.2368 43.0636 16.6182 41.9517 13.5709 40.0463C14.1096 40.1084 14.6581 40.1392 15.2133 40.1392C18.4396 40.1392 21.4087 39.0657 23.7657 37.2639C20.7513 37.2094 18.2098 35.2674 17.3328 32.5983C17.7525 32.6769 18.1842 32.7198 18.6269 32.7198C19.2554 32.7198 19.8642 32.6372 20.4428 32.4831C17.292 31.8678 14.9185 29.1514 14.9185 25.8988C14.9185 25.8684 14.9185 25.8412 14.9194 25.813C15.8473 26.3163 16.9084 26.619 18.0382 26.653C16.1893 25.4495 14.9739 23.3923 14.9739 21.0618C14.9739 19.8311 15.3149 18.6781 15.9064 17.6854C19.3021 21.7499 24.3768 24.4229 30.0998 24.7038C29.9817 24.2117 29.9208 23.6991 29.9208 23.1721C29.9208 19.464 33.0048 16.4556 36.8074 16.4556C38.7881 16.4556 40.5771 17.2723 41.8336 18.5781C43.4024 18.2762 44.8755 17.7171 46.2062 16.9477C45.6912 18.5155 44.5999 19.8311 43.1781 20.663C44.5711 20.5004 45.8986 20.1401 47.1323 19.6051C46.2108 20.9523 45.0421 22.1357 43.6977 23.0837Z" fill="white"/>
</svg>
